<svg width="1249" height="996" viewBox="0 0 1249 996" fill="none" xmlns="http://www.w3.org/2000/svg">
<path d="M-471.513 455.62C-471.513 455.62 -433.162 339.136 -374.187 296.298C-316.555 254.435 -252.914 296.719 -197.177 252.361C-141.125 207.752 -170.111 133.723 -114.519 88.5423C-56.7143 41.5634 15.2539 92.4801 70.5763 42.5985C123.816 -5.40562 83.0598 -80.9625 136.444 -128.806C191.279 -177.949 263.999 -125.732 319.412 -174.222C371.553 -219.848 337.114 -292.015 389.627 -337.212C443.618 -383.682 516.591 -330.451 566.638 -381.149C612.717 -427.828 612.818 -542.695 612.818 -542.695" stroke="#7231FD"/>
<path d="M-161.045 951.689C-161.045 951.689 -117.934 820.881 -51.6635 772.768C13.0985 725.75 84.5969 773.219 147.23 723.4C210.216 673.298 177.661 590.176 240.131 539.432C305.088 486.669 385.941 543.831 448.108 487.809C507.937 433.895 462.157 349.06 522.147 295.326C583.767 240.134 665.464 298.755 727.734 244.296C786.326 193.053 747.644 112.023 806.655 61.2614C867.326 9.07115 949.307 68.8308 1005.55 11.8928C1057.33 -40.5313 1057.46 -169.515 1057.46 -169.515" stroke="#C031FD" stroke-width="9.18182"/>
<path d="M-192.828 899.116C-192.828 899.116 -150.365 770.262 -85.0881 722.868C-21.2971 676.553 49.1306 723.314 110.824 674.239C172.866 624.887 140.797 543.006 202.331 493.021C266.314 441.046 345.956 497.356 407.191 442.171C466.122 389.063 421.027 305.494 480.118 252.564C540.813 198.196 621.288 255.943 682.623 202.299C740.337 151.821 702.234 72.0003 760.359 21.9979C820.121 -29.4122 900.875 29.4561 956.272 -26.6308C1007.28 -78.2714 1007.41 -205.329 1007.41 -205.329" stroke="#B931FD" stroke-width="8.36364"/>
<path d="M-224.611 846.542C-224.611 846.542 -182.796 719.642 -118.513 672.968C-55.6927 627.356 13.6643 673.409 74.4186 625.079C135.516 576.476 103.934 495.835 164.531 446.609C227.54 395.423 305.971 450.88 366.274 396.533C424.308 344.231 379.898 261.928 438.089 209.801C497.86 156.258 577.111 213.132 637.513 160.301C694.348 110.589 656.823 31.9779 714.064 -17.2657C772.916 -67.8956 852.442 -9.91853 906.995 -65.1545C957.224 -116.012 957.351 -241.143 957.351 -241.143" stroke="#B131FD" stroke-width="7.54545"/>
<path d="M-256.394 793.969C-256.394 793.969 -215.226 669.023 -151.937 623.068C-90.0883 578.159 -21.8019 623.504 38.0132 575.919C98.1665 528.065 67.071 448.665 126.731 400.197C188.766 349.8 265.986 404.405 325.357 350.895C382.494 299.399 338.768 218.362 396.06 167.038C454.907 114.321 532.935 170.32 592.403 118.303C648.359 69.3574 611.413 -8.04444 667.769 -56.5293C725.711 -106.379 804.009 -49.2932 857.719 -103.678C907.171 -153.752 907.294 -276.957 907.294 -276.957" stroke="#A931FD" stroke-width="6.72727"/>
<path d="M-288.177 741.395C-288.177 741.395 -247.657 618.403 -185.362 573.168C-124.484 528.961 -57.2683 573.599 1.60771 526.759C60.8165 479.653 30.2077 401.495 88.9312 353.785C149.992 304.177 226.001 357.929 284.44 305.257C340.679 254.567 297.639 174.796 354.03 124.276C411.954 72.3828 488.758 127.508 547.292 76.3048C602.37 28.1254 566.002 -48.0669 621.473 -95.7929C678.506 -144.862 755.576 -88.6679 808.443 -142.202C857.118 -191.492 857.238 -312.771 857.238 -312.771" stroke="#A131FD" stroke-width="5.90909"/>
<path d="M-319.96 688.822C-319.96 688.822 -280.088 567.784 -218.786 523.268C-158.879 479.764 -92.7345 523.694 -34.7977 477.599C23.4667 431.242 -6.65547 354.324 51.1313 307.374C111.218 258.554 186.017 311.454 243.523 259.619C298.865 209.735 256.51 131.23 312.002 81.5129C369.001 30.4451 444.582 84.6955 502.182 34.3069C556.381 -13.1065 520.592 -88.0893 575.178 -135.056C631.301 -183.346 707.144 -128.043 759.167 -180.726C807.066 -229.232 807.181 -348.585 807.181 -348.585" stroke="#9931FD" stroke-width="5.09091"/>
<path d="M-351.744 636.249C-351.744 636.249 -312.519 517.164 -252.211 473.367C-193.275 430.567 -128.201 473.789 -71.2032 428.438C-13.8833 382.831 -43.5187 307.154 13.3313 260.962C72.4436 212.931 146.032 264.978 202.606 213.981C257.051 164.902 215.38 87.6641 269.972 38.7501C326.048 -11.4926 400.405 41.8835 457.072 -7.69105C510.392 -54.3384 475.182 -128.112 528.883 -174.32C584.096 -221.829 658.711 -167.417 709.89 -219.249C757.013 -266.972 757.125 -384.399 757.125 -384.399" stroke="#9231FD" stroke-width="4.27273"/>
<path d="M-383.527 583.675C-383.527 583.675 -344.95 466.545 -285.635 423.467C-227.671 381.37 -163.667 423.884 -107.609 379.278C-51.2333 334.42 -80.382 259.983 -24.4688 214.55C33.6695 167.308 106.047 218.503 161.689 168.342C215.237 120.07 174.251 44.0982 227.943 -4.01257C283.095 -53.4303 356.229 -0.928449 411.961 -49.6889C464.403 -95.5703 429.771 -168.134 482.587 -213.584C536.89 -260.313 610.278 -206.792 660.614 -257.773C706.96 -304.712 707.068 -420.213 707.068 -420.213" stroke="#8A31FD" stroke-width="3.45455"/>
<path d="M-415.31 531.102C-415.31 531.102 -377.381 415.925 -319.06 373.567C-262.066 332.173 -199.133 373.979 -144.014 330.118C-88.5832 286.009 -117.245 212.813 -62.2687 168.138C-5.10443 121.685 66.0624 172.027 120.772 122.704C173.423 75.2381 133.121 0.532215 185.914 -46.7753C240.142 -95.368 312.052 -43.7404 366.851 -91.6869C418.414 -136.802 384.361 -208.156 436.292 -252.847C489.685 -298.796 561.845 -246.167 611.338 -296.297C656.907 -342.452 657.011 -456.027 657.011 -456.027" stroke="#8231FD" stroke-width="2.63636"/>
<path d="M-447.093 478.528C-447.093 478.528 -409.812 365.306 -352.485 323.667C-296.462 282.976 -234.6 324.074 -180.42 280.958C-125.933 237.597 -154.108 165.643 -100.069 121.726C-43.8785 76.0625 26.0776 125.552 79.8549 77.0664C131.608 30.406 91.9918 -43.0337 143.885 -89.538C197.188 -137.306 267.876 -86.5525 321.741 -133.685C372.425 -178.034 338.95 -248.179 389.997 -292.111C442.48 -337.28 513.412 -285.541 562.062 -334.82C606.854 -380.192 606.955 -491.841 606.955 -491.841" stroke="#7A31FD" stroke-width="1.81818"/>
</svg>
